<?xml version="1.0" encoding="UTF-8" standalone="no"?><!DOCTYPE svg PUBLIC "-//W3C//DTD SVG 1.1//EN" "http://www.w3.org/Graphics/SVG/1.1/DTD/svg11.dtd"><svg width="100%" height="100%" viewBox="0 0 72 72" version="1.1" xmlns="http://www.w3.org/2000/svg" xmlns:xlink="http://www.w3.org/1999/xlink" xml:space="preserve" style="fill-rule:evenodd;clip-rule:evenodd;stroke-linejoin:round;stroke-miterlimit:1.41421;"><path d="M36,0c19.869,0 36,16.131 36,36c0,19.869 -16.131,36 -36,36c-19.869,0 -36,-16.131 -36,-36c0,-19.869 16.131,-36 36,-36Zm22.627,36l-22.627,-22.627l-22.627,22.627l22.627,22.627l22.627,-22.627Zm-16.627,7l0,4l-12,0l0,-4l12,0Zm4,-6l0,4l-20,0l0,-4l20,0Zm0,-6l0,4l-20,0l0,-4l20,0Zm-4,-6l0,4l-12,0l0,-4l12,0Z" style="fill:#ff221f;"/></svg>